<?xml version="1.0" encoding="utf-8"?>
<!-- Generator: Adobe Illustrator 17.0.0, SVG Export Plug-In . SVG Version: 6.00 Build 0)  -->
<!DOCTYPE svg PUBLIC "-//W3C//DTD SVG 1.1//EN" "http://www.w3.org/Graphics/SVG/1.1/DTD/svg11.dtd">
<svg version="1.1" id="Calque_1" xmlns="http://www.w3.org/2000/svg" xmlns:xlink="http://www.w3.org/1999/xlink" x="0px" y="0px"
	 width="475px" height="86px" viewBox="0 0 475 86" enable-background="new 0 0 475 86" xml:space="preserve">
<g>
	<g>
		<path fill="#1A1A1A" d="M178.249,56.139h-17.594V68.5c0,1.163,0.055,1.904,0.164,2.224c0.109,0.32,0.314,0.589,0.613,0.807
			c0.299,0.218,0.821,0.327,1.566,0.327v0.313h-8.344v-0.313c1.521,0.102,2.281-0.632,2.281-2.201V43.833
			c0-1.467-0.121-2.397-0.362-2.79c-0.241-0.392-0.881-0.61-1.919-0.654v-0.313h8.344v0.313c-0.92,0.058-1.54,0.232-1.862,0.522
			c-0.321,0.29-0.482,0.885-0.482,1.785v12.537h17.594v-11.47c0-1.306-0.113-2.194-0.337-2.666
			c-0.225-0.472-0.852-0.708-1.881-0.708v-0.313h8.219v0.313c-0.652,0-1.137,0.077-1.456,0.229
			c-0.319,0.152-0.536,0.389-0.652,0.708c-0.116,0.32-0.174,1.133-0.174,2.441v24.648c0,1.264,0.058,2.052,0.174,2.365
			c0.116,0.312,0.318,0.57,0.608,0.773c0.29,0.204,0.789,0.305,1.499,0.305v0.313h-8.219v-0.313c0.884,0,1.475-0.182,1.772-0.545
			c0.297-0.363,0.446-1.344,0.446-2.943V56.139z"/>
		<path fill="#1A1A1A" d="M196.649,40.452v-0.375h20.218v4.438h-0.313c-0.436-1.646-0.804-2.615-1.102-2.907
			c-0.299-0.291-1.03-0.437-2.194-0.437h-10.61v14.375h9.854c0.975,0,1.595-0.09,1.857-0.271c0.262-0.181,0.4-0.444,0.414-0.792
			h0.313v3.031h-0.313c-0.072-0.419-0.244-0.701-0.514-0.846c-0.27-0.145-0.768-0.217-1.496-0.217h-10.115v9.923
			c0,1.498,0.139,2.578,0.414,3.239c0.275,0.662,0.715,1.076,1.317,1.243c0.602,0.167,1.513,0.251,2.733,0.251h5.661
			c1.8,0,2.95-0.062,3.451-0.185c0.501-0.123,0.925-0.369,1.274-0.738c0.348-0.369,0.616-1.176,0.805-2.421h0.313v4.406h-21.968
			v-0.313c0.746-0.044,1.312-0.185,1.7-0.425c0.388-0.239,0.581-0.86,0.581-1.862V43.653c0-1.176-0.102-2.003-0.307-2.483
			C198.418,40.691,197.76,40.452,196.649,40.452z M208.165,31.139h3.921l-6.6,6.719h-1.025L208.165,31.139z"/>
		<path fill="#1A1A1A" d="M228.576,72.17v-0.313c1.006,0,1.658-0.188,1.957-0.566c0.299-0.378,0.449-1.025,0.449-1.94V43.07
			c0-0.93-0.116-1.602-0.348-2.016c-0.232-0.414-0.93-0.635-2.09-0.665v-0.313h8.625v0.313c-0.801,0-1.362,0.102-1.683,0.305
			c-0.32,0.204-0.532,0.443-0.634,0.72c-0.102,0.276-0.152,0.901-0.152,1.875v22.543c0,1.933,0.464,3.296,1.393,4.088
			c0.928,0.792,2.517,1.188,4.766,1.188h3.916c1.885,0,3.267-0.465,4.145-1.396c0.877-0.931,1.367-2.685,1.469-5.26h0.313v7.719
			H228.576z"/>
		<path fill="#1A1A1A" d="M271.284,40.077v0.313c-0.423-0.043-0.893,0.022-1.409,0.196c-0.518,0.174-0.822,0.429-0.918,0.763
			c-0.094,0.334-0.142,1.126-0.142,2.375v24.647c0,1.337,0.054,2.154,0.163,2.452c0.109,0.298,0.32,0.545,0.635,0.741
			c0.313,0.196,0.869,0.294,1.671,0.294v0.313h-8.594v-0.313c1.079,0,1.749-0.207,2.013-0.621c0.262-0.414,0.394-1.354,0.394-2.822
			V44.007c0-1.525-0.145-2.524-0.438-2.997c-0.292-0.472-0.948-0.679-1.969-0.621v-0.313H271.284z"/>
		<path fill="#1A1A1A" d="M301.138,39.608c4.507,0,8.192,1.37,11.056,4.109c2.865,2.74,4.297,6.159,4.297,10.257
			c0,5.276-1.658,9.716-4.973,13.32c-3.314,3.604-7.713,5.407-13.193,5.407c-4.449,0-8.09-1.453-10.926-4.36
			c-2.834-2.907-4.252-6.395-4.252-10.465c0-2.747,0.684-5.566,2.05-8.458c1.366-2.892,3.423-5.25,6.171-7.074
			C294.115,40.52,297.372,39.608,301.138,39.608z M301.008,71.014c2.211,0,4.393-0.593,6.545-1.778
			c2.152-1.186,3.847-2.818,5.083-4.898c1.236-2.08,1.855-4.219,1.855-6.415c0-3.113-0.833-5.942-2.498-8.488
			c-1.666-2.546-3.825-4.538-6.479-5.979c-2.654-1.44-5.108-2.16-7.362-2.16c-3.186,0-6.076,1.2-8.672,3.601
			c-2.597,2.4-3.894,5.382-3.894,8.946c0,4.553,1.585,8.554,4.756,12.001C293.51,69.291,297.066,71.014,301.008,71.014z"/>
		<path fill="#1A1A1A" d="M328.668,40.389v-0.313h9.16c3.256,0,5.623,0.364,7.098,1.091c1.477,0.728,2.552,1.633,3.229,2.716
			c0.676,1.083,1.014,2.512,1.014,4.287c0,2.72-0.938,4.763-2.811,6.13c-1.875,1.367-4.417,2.022-7.627,1.963v-0.313
			c2.037,0,3.691-0.625,4.965-1.875c1.273-1.25,1.91-2.892,1.91-4.927c0-1.584-0.309-2.99-0.926-4.219
			c-0.617-1.228-1.486-2.162-2.603-2.801c-1.119-0.64-2.826-0.959-5.121-0.959h-2.287v27.464c0,1.554,0.174,2.479,0.521,2.777
			c0.348,0.298,1.008,0.446,1.979,0.446v0.313h-8.5v-0.313c1.52,0,2.281-0.69,2.281-2.07V43.2c0-1.133-0.146-1.885-0.439-2.255
			C330.218,40.575,329.603,40.389,328.668,40.389z"/>
		<path fill="#1A1A1A" d="M374.516,57.389h-9.401l-4.843,12.137c-0.334,0.872-0.502,1.409-0.502,1.612
			c0,0.479,0.357,0.719,1.069,0.719v0.313h-4.781v-0.313c0.64,0,1.178-0.156,1.614-0.468c0.437-0.313,0.916-1.123,1.44-2.43
			l11.632-29.352h0.583l11.412,28.347c0,0.146,0.294,0.833,0.881,2.061c0.587,1.229,1.483,1.842,2.688,1.842v0.313h-7.5v-0.313
			c0.683,0,1.024-0.269,1.024-0.806c0-0.363-0.168-0.944-0.502-1.743c-0.058-0.058-0.108-0.152-0.152-0.283
			c-0.029-0.145-0.051-0.218-0.064-0.218L374.516,57.389z M365.439,56.483h8.645l-4.323-10.905L365.439,56.483z"/>
		<path fill="#1A1A1A" d="M397.219,40.389v-0.313h9.105c2.309,0,3.978,0.051,5.01,0.153c1.031,0.102,2.087,0.44,3.169,1.014
			c1.082,0.575,1.899,1.353,2.45,2.334c0.553,0.982,0.828,2.186,0.828,3.61c0,1.629-0.49,3.182-1.469,4.658
			c-0.978,1.477-2.359,2.724-4.143,3.741l2.263,3.483c0.493,0.871,1.802,2.779,3.928,5.726c2.126,2.946,3.768,4.74,4.931,5.381
			c1.162,0.642,2.287,0.962,3.376,0.962c1.074,0,2.308-0.406,3.702-1.219l0.131,0.434c-1.74,1.419-4.004,2.129-6.787,2.129
			c-1.857,0-3.453-0.55-4.787-1.65c-1.334-1.1-3.655-4.117-6.963-9.05c-0.029-0.029-0.045-0.058-0.045-0.087l-3.221-4.963
			l-2.855,0.087h-2.593v12.274c0,0.986,0.131,1.694,0.391,2.122c0.262,0.428,0.891,0.642,1.891,0.642v0.313h-8.313v-0.313
			c1.032-0.044,1.676-0.261,1.931-0.654c0.255-0.392,0.382-1.191,0.382-2.397V43.288c0-0.828-0.109-1.514-0.327-2.059
			C398.986,40.684,398.324,40.404,397.219,40.389z M403.25,40.92v15.063h3.355c2.643,0,4.605-0.625,5.883-1.875
			c1.279-1.25,1.918-2.892,1.918-4.926c0-1.977-0.629-3.848-1.885-5.613c-1.257-1.766-3.469-2.648-6.635-2.648H403.25z"/>
		<path fill="#1A1A1A" d="M462.938,41.703l1.198,3.405h-0.303c-3.106-3.104-6.765-4.656-10.974-4.656
			c-4.369,0-7.898,1.302-10.592,3.904c-2.691,2.603-4.038,5.75-4.038,9.443c0,2.283,0.599,4.908,1.797,7.873
			c1.198,2.966,3.09,5.405,5.675,7.317c2.585,1.912,5.715,2.868,9.389,2.868c2.411,0,4.775-0.387,7.091-1.163
			c2.316-0.775,4.041-1.815,5.174-3.119l0.281,0.087l-2.243,3.431c-3.631,0.782-5.988,1.245-7.07,1.39
			c-1.082,0.144-2.53,0.217-4.346,0.217c-6.725,0-11.535-1.559-14.433-4.676c-2.897-3.117-4.346-6.849-4.346-11.195
			c0-2.936,0.743-5.759,2.232-8.47c1.488-2.71,3.633-4.847,6.435-6.409c2.802-1.563,6.002-2.344,9.603-2.344
			c1.799,0,3.356,0.164,4.67,0.491c1.314,0.327,2.406,0.666,3.277,1.015l1.438,0.546C462.895,41.674,462.924,41.688,462.938,41.703z
			"/>
	</g>
</g>
<g>
	<g>
		<path fill="#1A1A1A" d="M164.546,16.538v1.828h-3.617v8.164h-2.492v-8.164h-3.617v-1.828H164.546z"/>
		<path fill="#1A1A1A" d="M195.811,24.702v1.828h-7.367v-9.992h7.266v1.828h-4.774v2.101h4.555v1.828h-4.555v2.406H195.811z"/>
		<path fill="#1A1A1A" d="M229.394,23.476v2.184c-1.249,0.664-2.559,0.996-3.927,0.996c-1.774,0-3.187-0.489-4.238-1.469
			c-1.052-0.979-1.577-2.186-1.577-3.62c0-1.434,0.554-2.651,1.662-3.652c1.108-1,2.557-1.501,4.345-1.501
			c1.425,0,2.631,0.293,3.618,0.879v2.223c-1.21-0.682-2.357-1.023-3.439-1.023c-1.063,0-1.931,0.285-2.604,0.854
			c-0.675,0.569-1.012,1.294-1.012,2.175c0,0.886,0.332,1.617,0.997,2.193c0.665,0.576,1.518,0.864,2.557,0.864
			c0.515,0,1.011-0.068,1.487-0.204C227.739,24.237,228.449,23.938,229.394,23.476z"/>
		<path fill="#1A1A1A" d="M263.706,16.538v9.992h-2.492v-4.047h-4.969v4.047h-2.492v-9.992h2.492v4.008h4.969v-4.008H263.706z"/>
		<path fill="#1A1A1A" d="M298.419,16.538v9.992h-2.104l-5.505-6.401v6.401h-2.492v-9.992h2.287l5.322,6.108v-6.108H298.419z"/>
		<path fill="#1A1A1A" d="M328.331,16.413c1.703,0,3.081,0.514,4.135,1.54c1.054,1.027,1.581,2.222,1.581,3.584
			c0,1.382-0.534,2.58-1.603,3.595c-1.068,1.015-2.439,1.522-4.113,1.522c-1.692,0-3.071-0.505-4.134-1.515
			c-1.065-1.01-1.596-2.211-1.596-3.602c0-1.367,0.528-2.563,1.584-3.588C325.242,16.925,326.624,16.413,328.331,16.413z
			 M328.331,24.577c0.944,0,1.704-0.28,2.28-0.839c0.577-0.559,0.865-1.294,0.865-2.204c0-0.914-0.288-1.65-0.865-2.207
			c-0.576-0.557-1.336-0.836-2.28-0.836c-0.948,0-1.712,0.279-2.291,0.836c-0.579,0.557-0.868,1.293-0.868,2.207
			c0,0.91,0.289,1.644,0.868,2.204C326.619,24.297,327.383,24.577,328.331,24.577z"/>
		<path fill="#1A1A1A" d="M358.313,16.538h4.454c1.011,0,1.814,0.293,2.41,0.879c0.596,0.587,0.893,1.28,0.893,2.081
			c0,0.829-0.294,1.539-0.883,2.13c-0.588,0.591-1.39,0.887-2.403,0.887h-1.979v4.016h-2.492V16.538z M360.805,18.366v2.32h1.155
			c1.032,0,1.548-0.387,1.548-1.16c0-0.435-0.138-0.736-0.414-0.906c-0.275-0.17-0.746-0.254-1.412-0.254H360.805z"/>
		<path fill="#1A1A1A" d="M395.478,16.413c1.703,0,3.081,0.514,4.135,1.54c1.054,1.027,1.581,2.222,1.581,3.584
			c0,1.382-0.534,2.58-1.602,3.595c-1.068,1.015-2.44,1.522-4.113,1.522c-1.692,0-3.07-0.505-4.135-1.515
			c-1.063-1.01-1.595-2.211-1.595-3.602c0-1.367,0.528-2.563,1.585-3.588C392.39,16.925,393.771,16.413,395.478,16.413z
			 M395.478,24.577c0.943,0,1.704-0.28,2.28-0.839c0.577-0.559,0.865-1.294,0.865-2.204c0-0.914-0.288-1.65-0.865-2.207
			c-0.576-0.557-1.337-0.836-2.28-0.836c-0.948,0-1.712,0.279-2.291,0.836s-0.868,1.293-0.868,2.207c0,0.91,0.289,1.644,0.868,2.204
			C393.767,24.297,394.53,24.577,395.478,24.577z"/>
		<path fill="#1A1A1A" d="M432.976,24.702v1.828h-7.617v-9.992h2.492v8.164H432.976z"/>
		<path fill="#1A1A1A" d="M464.123,24.702v1.828h-7.367v-9.992h7.266v1.828h-4.773v2.101h4.555v1.828h-4.555v2.406H464.123z"/>
	</g>
</g>
<path fill="#6D9D31" d="M52.045,42.907l7.142,2.932c0,0-14.596,3.219-22.053,4.399c-7.46,1.185-22.232,2.617-22.232,2.617
	l-4.709-1.567c0,0,19.686-2.206,25.525-3.83C41.555,45.828,52.045,42.907,52.045,42.907z"/>
<path fill="#8DC63F" d="M61.198,47.44l11.299,2.2c-21.028,4.471-32.638,5.736-42.474,6.569c-3.262,0.278-11.033-1.814-11.033-1.814
	s20.99-2.19,24.888-3.079C47.779,50.424,61.198,47.44,61.198,47.44z"/>
<path fill="#F7941E" d="M70.612,36.459c1.18,0.128,7.964,2.881,9.843,2.987c0.525,0.034-17.162,5.27-17.162,5.27l-8.557-2.885
	L70.612,36.459z"/>
<polygon fill="#FFC20E" points="95.176,42.969 76.499,48.071 66.22,46.109 83.09,40.772 "/>
<path fill="#FFF200" d="M99.502,43.652l-17.362,5.58l27.466,2.654c0,0,2.344,0.613,6.615-1.836c2.743-1.573,5.868-4.65,5.868-4.65
	L99.502,43.652z"/>
<path fill="#ABE1FA" d="M135.613,21.104c0,0-14.065,14.994-31.711,20.566c-0.887,0.707,19.394,1.8,20.621,0.918
	C135.123,34.986,135.183,22.179,135.613,21.104z"/>
<path fill="#44C8F5" d="M121.08,14.405l12.569,3.928c0,0-2.824,5.041-14.827,13.257c-5.172,3.529-20.758,9.417-20.758,9.417
	l-11.013-1.726c0,0,13.034-5.676,22.638-12.602C116.221,21.962,121.08,14.405,121.08,14.405z"/>
<path fill="#CBDB2A" d="M51.468,55.916c4.913-0.525,25.424-5.335,25.424-5.335s23.147,3.058,30.524,3.216
	c1.029,0.023-19.489,3.857-38.495,4.838c-20.458,1.049-34.088-0.914-34.088-0.914S46.558,56.45,51.468,55.916z"/>
<path fill="#00AEEF" d="M97.614,12.955c0.592-0.058,19.954,1.515,19.954,1.515s-7.857,9.77-18.701,16.664
	c-7.421,4.727-14.85,7.408-14.85,7.408l-10.734-3.725c0,0,10.372-5.251,15.542-10.374C93.832,19.472,97.614,12.955,97.614,12.955z"
	/>
<g>
	<g>
		<path fill="none" d="M14.365,53.658c0,0,87.943-4.292,108.835-45.04"/>
		<path d="M14.279,54.148c15.652-0.78,31.399-3.47,46.583-7.239c22.936-5.694,50.531-15.551,62.268-37.815
			c0.135-0.256,0.063-0.803,0.141-0.951c-11.762,22.312-39.3,31.978-62.236,37.785c-15.149,3.835-30.951,6.46-46.583,7.239
			C14.309,53.174,14.276,54.148,14.279,54.148L14.279,54.148z"/>
	</g>
</g>
<g>
	<g>
		<path fill="none" d="M29.736,57.074c0,0,78.138-4.452,106.57-39.554"/>
		<path d="M29.648,57.572c14.504-0.843,29.052-3.381,43.161-6.743c22.791-5.43,48.021-14.187,63.426-32.827
			c0.176-0.213,0.059-0.864,0.143-0.965c-15.667,18.956-41.332,27.54-64.467,33.052c-13.742,3.274-27.962,5.666-42.086,6.487
			C29.676,56.585,29.648,57.572,29.648,57.572L29.648,57.572z"/>
	</g>
</g>
<g>
	<g>
		<path fill="none" d="M71.356,35.294c5.165,1.935,11.588,6.858,52.79,8.785"/>
		<path d="M71.312,35.543c17.029,6.504,34.607,7.902,52.79,8.785c0.058,0.003,0.105-0.497,0.088-0.498
			c-18.184-0.883-35.761-2.281-52.79-8.785C71.393,35.042,71.249,35.519,71.312,35.543L71.312,35.543z"/>
	</g>
</g>
<g>
	<g>
		<path fill="none" d="M53.149,42.211c2.827,1.344,7.151,6.491,56.728,10.659"/>
		<path d="M53.105,42.46c17.207,8.422,37.974,9.058,56.728,10.659c0.052,0.004,0.111-0.496,0.088-0.498
			c-18.754-1.6-39.521-2.236-56.728-10.659C53.2,41.966,53.033,42.425,53.105,42.46L53.105,42.46z"/>
	</g>
</g>
<path d="M100.912,42.266c0,0.549-0.447,0.998-0.999,0.998c-0.551,0-1-0.449-1-0.998c0-0.555,0.449-1.002,1-1.002
	C100.465,41.264,100.912,41.711,100.912,42.266z"/>
<path d="M84.872,39.078c0,0.549-0.449,1-0.999,1c-0.552,0-1-0.45-1-1c0-0.555,0.448-0.999,1-0.999
	C84.423,38.079,84.872,38.522,84.872,39.078z"/>
<path d="M77.445,49.37c0,0.556-0.447,1-0.999,1c-0.552,0-1-0.444-1-1c0-0.548,0.448-1.001,1-1.001
	C76.998,48.368,77.445,48.822,77.445,49.37z"/>
<path d="M63.708,45.801c0,0.55-0.446,1.004-0.998,1.004c-0.552,0-1.001-0.454-1.001-1.004c0-0.554,0.45-0.997,1.001-0.997
	C63.262,44.804,63.708,45.247,63.708,45.801z"/>
<g>
	<g>
		<path fill="none" d="M41.326,44.315c-1.009-2.883-1.301-5.835-0.762-8.754c2.549-13.802,30.225-31.51,81.205-0.692"/>
		<path fill="#58595B" d="M41.542,43.261c-4.244-14.223,10.389-21.958,22.185-23.825c20.179-3.193,41.036,6.494,57.848,16.531
			c-0.082-0.049,0.738-1.988,0.388-2.197c-18.736-11.186-43.349-22.253-65.448-14.668C45.091,23.024,37.478,33.195,41.11,45.37
			C41.021,45.071,41.72,43.857,41.542,43.261L41.542,43.261z"/>
	</g>
</g>
<g>
	<rect x="14.005" y="66.924" fill="#BCBEC0" width="65.474" height="5.064"/>
	<polygon fill="#808285" points="79.479,66.924 79.47,71.988 79.479,71.988 79.479,71.988 127.194,68.968 127.194,63.934 	"/>
</g>
</svg>
